<!DOCTYPE svg PUBLIC "-//W3C//DTD SVG 1.1//EN" "http://www.w3.org/Graphics/SVG/1.1/DTD/svg11.dtd">
<!-- Uploaded to: SVG Repo, www.svgrepo.com, Transformed by: SVG Repo Mixer Tools -->
<svg fill="#000000" height="800px" width="800px" version="1.1" id="Layer_1" xmlns="http://www.w3.org/2000/svg" xmlns:xlink="http://www.w3.org/1999/xlink" viewBox="-48.65 -48.65 583.84 583.84" xml:space="preserve" transform="rotate(0)">
<g id="SVGRepo_bgCarrier" stroke-width="0" transform="translate(0,0), scale(1)">
<path transform="translate(-48.65, -48.65), scale(18.245)" d="M16,31.792731324308797C19.508999319855448,31.77339305720385,21.90299982932995,28.487448142075184,24.477050702129915,26.102555628866597C26.889485534448934,23.867402535741093,30.355773215547558,21.813548526240986,30.320052319143556,18.525011589021837C30.28469102917236,15.269580736929026,26.398766652471856,13.700774255797505,24.315167181560923,11.199235989369061C22.75372361471458,9.32459026793059,21.989431446720623,6.675921081571201,19.715095366809496,5.792859368570422C17.41792801464602,4.900932904857013,14.944883136012447,5.902188923983023,12.596602349594411,6.649241806085726C10.123131009642924,7.436121255935404,7.470310634552247,8.098322423437475,5.921284651849497,10.181050980659688C4.253195511553789,12.423864805140768,3.8139870700971934,15.319492464999591,4.078581689631337,18.102067696429913C4.363792255247893,21.101447869103666,5.46561821982209,23.924222049670036,7.444183885460546,26.19642459207782C9.751681008037384,28.84637496753117,12.48625484955988,31.812095745918523,16,31.792731324308797" fill="#7ed0ec" strokewidth="0"/>
</g>
<g id="SVGRepo_tracerCarrier" stroke-linecap="round" stroke-linejoin="round"/>
<g id="SVGRepo_iconCarrier"> <g> <g> <path d="M365.697,0l-13.923,13.923l67.76,67.76H132.139c-54.452,0-98.75,44.298-98.75,98.745v61.389h19.692v-61.389 c0-43.591,35.466-79.053,79.058-79.053h287.394l-67.76,67.76l13.923,13.923l91.529-91.529L365.697,0z"/> </g> </g> <g> <g> <path d="M433.457,244.716v61.389c0,43.591-35.466,79.058-79.058,79.058H67.004l67.76-67.764l-13.923-13.923L29.313,395.01 l91.529,91.529l13.923-13.923l-67.76-67.76h287.394c54.452,0,98.75-44.298,98.75-98.75v-61.389H433.457z"/> </g> </g> </g>
</svg>